# xmcd CD database file
# Copyright (C) 1996 Ti Kan
#
# Track frame offsets:
# 	150
# 	19490
# 	43977
# 	74617
# 	112607
# 	124835
# 	146320
# 	167705
# 	179682
# 	209955
# 	239875
# 	255625
# 	279997
# 	289642
#
# Disc length: 4075 seconds
#
# Revision: 1
# Processed by: cddbd v1.4b41PL1 Copyright (c) Steve Scherf et al.
# Submitted via: DiscPlay 3.3.1
#
DISCID=e30fe90e
DTITLE=Too Slim and the Taildraggers - Wanted Live!
DYEAR=1900
DGENRE=
TTITLE0=Western Man
TTITLE1=Lowdown Hoedown
TTITLE2=So Many Roads, So Many Trains
TTITLE3=How Many More Years
TTITLE4=She Blows My Socks Off
TTITLE5=Bone Of Contention
TTITLE6=Howlin For My Darlin
TTITLE7=Sonic Boom
TTITLE8=Long Tail, Black Cat
TTITLE9=Shake Em On Down
TTITLE10=Rumble
TTITLE11=El Rauncho Grundge
TTITLE12=Home On The Range
TTITLE13=If You Ain't Rockin
EXTD=
EXTT0=
EXTT1=
EXTT2=
EXTT3=
EXTT4=
EXTT5=
EXTT6=
EXTT7=
EXTT8=
EXTT9=
EXTT10=
EXTT11=
EXTT12=
EXTT13=
PLAYORDER=
